<svg id="Layer_1" data-name="Layer 1" xmlns="http://www.w3.org/2000/svg" viewBox="0 0 380.16 447.81"><defs><style>.cls-1{fill:#1f427f;}.cls-2{fill:#e48225;}.cls-3{fill:#004a65;}.cls-4{fill:#070036;opacity:0.56;}.cls-5{fill:#094759;}.cls-6{fill:#d07228;}</style></defs><path class="cls-1" d="M603.92,261.42c-2.1,23.85-8.51,43.82-17.6,64.87a148.27,148.27,0,0,0,6.74-44.13c0-98.58-97.81-182.59-218.22-178.49-50.23,1.72-91.4,21.35-123.71,50.38V113.28c0-16.49,10.94-31.8,28.54-38.67C309.33,63,342.54,60.4,379.55,60.4,499.85,60.4,614.79,140.09,603.92,261.42Z" transform="translate(-251.13 -60.4)"/><path class="cls-2" d="M631.29,300.9c0,106.25-97.52,205.57-217.86,205.57-9.52,0-33.39,2.53-42.59,1.48l70.66-67.08c59.57-9.33,110.59-30.41,145-93.35,6.57-12,13.39-32.79,18.94-53.19,13.25-48.69.66-81.11.58-83C621.26,240.68,631.29,276.67,631.29,300.9Z" transform="translate(-251.13 -60.4)"/><path class="cls-3" d="M427.46,440.87l-72.21,65.54h-76.2V149.77A130.82,130.82,0,0,1,321,134.61c24-4.2,49.21-2.87,49.21-2.87V443.21s44.44-.74,57-2.34Z" transform="translate(-251.13 -60.4)"/><path class="cls-4" d="M370.2,443.21,334.64,491V132.59s35.56-2.8,35.56-.53Z" transform="translate(-251.13 -60.4)"/><polygon class="cls-4" points="86.51 433.65 169.57 381.43 121.38 382.81 86.51 433.65"/><path class="cls-5" d="M593.06,282.16a148.27,148.27,0,0,1-6.74,44.13c-.14.31-.25.61-.39.92.07-1.91.1-3.79.1-5.67,0-106.25-68-180.55-217.86-192.39-42.94-3.39-83.14,7.46-117,27.28v-2.38c32.31-29,73.48-48.66,123.71-50.38C495.25,99.57,593.06,183.58,593.06,282.16Z" transform="translate(-251.13 -60.4)"/><path class="cls-6" d="M563.46,418.22c-52,58.4-156.6,55.54-156.6,55.54l34.64-32.89s45.29-5.78,74.42-25.12c17-11.26,44-27.93,60.22-52.94,28.5-43.83,34-91.84,34-91.84C610.13,278,614.51,360.91,563.46,418.22Z" transform="translate(-251.13 -60.4)"/></svg>